<?xml version="1.0" encoding="UTF-8" standalone="no"?>
<svg width="200px" height="200px" viewBox="0 0 200 200" version="1.1" xmlns="http://www.w3.org/2000/svg" xmlns:xlink="http://www.w3.org/1999/xlink" xmlns:sketch="http://www.bohemiancoding.com/sketch/ns">
    <!-- Generator: Sketch 3.5.1 (25234) - http://www.bohemiancoding.com/sketch -->
    <g id="Page-1" stroke="none" stroke-width="1" fill="none" fill-rule="evenodd" sketch:type="MSPage">
        <path d="M52.6875,156.71875 C65.6042312,156.71875 75.8254832,153.880237 83.3515625,148.203125 C90.8776418,142.526013 94.640625,134.583384 94.640625,124.375 C94.640625,120.156229 94.0026105,116.432308 92.7265625,113.203125 C91.4505145,109.973942 89.5234504,107.200532 86.9453125,104.882812 C84.3671746,102.565093 81.5026199,100.598966 78.3515625,98.984375 C75.2005051,97.3697836 71.3593977,95.8333406 66.828125,94.375 L44.328125,87.109375 C39.0155984,85.3385328 35.1484496,83.2421996 32.7265625,80.8203125 C30.3046754,78.3984254 29.09375,75.1562703 29.09375,71.09375 C29.09375,65.6770562 31.4374766,61.5364727 36.125,58.671875 C40.8125234,55.8072773 47.0624609,54.375 54.875,54.375 C60.3437773,54.375 65.4869551,55.2473871 70.3046875,56.9921875 C75.1224199,58.7369879 79.1197758,60.6510312 82.296875,62.734375 C83.3906305,63.4635453 84.5364523,63.828125 85.734375,63.828125 C87.40105,63.828125 88.8333273,63.1770898 90.03125,61.875 C91.2291727,60.5729102 91.828125,59.1145914 91.828125,57.5 C91.828125,55.9374922 91.2291727,54.6354219 90.03125,53.59375 C86.4895656,50.4166508 81.3724293,47.643241 74.6796875,45.2734375 C67.9869457,42.903634 60.9687867,41.71875 53.625,41.71875 C46.1249625,41.71875 39.393259,42.8906133 33.4296875,45.234375 C27.466116,47.5781367 22.7265801,51.0416437 19.2109375,55.625 C15.6952949,60.2083563 13.9375,65.5208031 13.9375,71.5625 C13.9375,79.0625375 15.9687297,84.9478953 20.03125,89.21875 C24.0937703,93.4896047 30.2655836,97.0312359 38.546875,99.84375 L60.96875,107.34375 C64.3021,108.489589 67.0104063,109.557287 69.09375,110.546875 C71.1770938,111.536463 73.0390543,112.760409 74.6796875,114.21875 C76.3203207,115.677091 77.492184,117.382803 78.1953125,119.335938 C78.898441,121.289072 79.25,123.64582 79.25,126.40625 C79.25,132.135445 76.8411699,136.510402 72.0234375,139.53125 C67.2057051,142.552098 60.9948297,144.0625 53.390625,144.0625 C41.7239,144.0625 31.4635859,140.625034 22.609375,133.75 C22.0364555,133.333331 21.3854203,133.125 20.65625,133.125 C19.0416586,133.125 17.4401121,134.010408 15.8515625,135.78125 C14.2630129,137.552092 13.46875,139.270825 13.46875,140.9375 C13.46875,141.927088 13.7812469,142.70833 14.40625,143.28125 C24.0417148,152.239628 36.8020039,156.71875 52.6875,156.71875 L52.6875,156.71875 Z M144.31625,156.71875 C157.232981,156.71875 167.454233,153.880237 174.980312,148.203125 C182.506392,142.526013 186.269375,134.583384 186.269375,124.375 C186.269375,120.156229 185.63136,116.432308 184.355312,113.203125 C183.079264,109.973942 181.1522,107.200532 178.574062,104.882812 C175.995924,102.565093 173.13137,100.598966 169.980312,98.984375 C166.829255,97.3697836 162.988148,95.8333406 158.456875,94.375 L135.956875,87.109375 C130.644348,85.3385328 126.777199,83.2421996 124.355312,80.8203125 C121.933425,78.3984254 120.7225,75.1562703 120.7225,71.09375 C120.7225,65.6770562 123.066226,61.5364727 127.75375,58.671875 C132.441273,55.8072773 138.691211,54.375 146.50375,54.375 C151.972527,54.375 157.115705,55.2473871 161.933437,56.9921875 C166.75117,58.7369879 170.748526,60.6510312 173.925625,62.734375 C175.01938,63.4635453 176.165202,63.828125 177.363125,63.828125 C179.0298,63.828125 180.462077,63.1770898 181.66,61.875 C182.857923,60.5729102 183.456875,59.1145914 183.456875,57.5 C183.456875,55.9374922 182.857923,54.6354219 181.66,53.59375 C178.118315,50.4166508 173.001179,47.643241 166.308437,45.2734375 C159.615696,42.903634 152.597537,41.71875 145.25375,41.71875 C137.753712,41.71875 131.022009,42.8906133 125.058437,45.234375 C119.094866,47.5781367 114.35533,51.0416437 110.839687,55.625 C107.324045,60.2083563 105.56625,65.5208031 105.56625,71.5625 C105.56625,79.0625375 107.59748,84.9478953 111.66,89.21875 C115.72252,93.4896047 121.894333,97.0312359 130.175625,99.84375 L152.5975,107.34375 C155.93085,108.489589 158.639156,109.557287 160.7225,110.546875 C162.805844,111.536463 164.667804,112.760409 166.308437,114.21875 C167.949071,115.677091 169.120934,117.382803 169.824062,119.335938 C170.527191,121.289072 170.87875,123.64582 170.87875,126.40625 C170.87875,132.135445 168.46992,136.510402 163.652187,139.53125 C158.834455,142.552098 152.62358,144.0625 145.019375,144.0625 C133.35265,144.0625 123.092336,140.625034 114.238125,133.75 C113.665205,133.333331 113.01417,133.125 112.285,133.125 C110.670408,133.125 109.068862,134.010408 107.480312,135.78125 C105.891763,137.552092 105.0975,139.270825 105.0975,140.9375 C105.0975,141.927088 105.409997,142.70833 106.035,143.28125 C115.670465,152.239628 128.430754,156.71875 144.31625,156.71875 L144.31625,156.71875 Z" id="SS" fill="#fff"></path>
    </g>
</svg>